<?xml version="1.0" standalone="no"?><!DOCTYPE svg PUBLIC "-//W3C//DTD SVG 1.1//EN" "http://www.w3.org/Graphics/SVG/1.1/DTD/svg11.dtd"><svg t="1480574344076" class="icon" style="" viewBox="0 0 1024 1024" version="1.1" xmlns="http://www.w3.org/2000/svg" p-id="1057" xmlns:xlink="http://www.w3.org/1999/xlink" width="200" height="200"><defs><style type="text/css"></style></defs><path d="M195.984115 197.031469l142.16179 0 0 142.160767-142.16179 0 0-142.160767ZM685.854095 197.031469l142.16179 0 0 142.160767-142.16179 0 0-142.160767ZM195.984115 684.154895l142.16179 0 0 142.203746-142.16179 0 0-142.203746ZM866.42159 547.486212l106.065687 0 0 106.065687-106.065687 0 0-106.065687ZM760.357949 653.5519l106.063641 0 0 106.063641-106.063641 0 0-106.063641ZM866.42159 759.615541l106.065687 0 0 106.065687-106.065687 0 0-106.065687ZM760.357949 898.463865l212.130352 0 0 70.01461-212.130352 0 0-70.01461ZM541.425681 759.615541 680.840918 759.615541 680.840918 828.539306 610.305445 828.539306 610.305445 968.478476 541.425681 968.478476ZM541.425681 547.486212 541.425681 724.088396 610.305445 724.088396 610.305445 616.408955 750.28657 616.408955 750.28657 547.486212ZM482.573295 483.621673 51.511699 483.621673 51.511699 52.559053l431.061596 0L482.573295 483.621673zM436.537819 98.595552 97.547175 98.595552l0 338.990644 338.990644 0L436.537819 98.595552zM972.487278 483.621673 541.425681 483.621673 541.425681 52.559053l431.061596 0L972.487278 483.621673zM926.450778 98.595552l-338.990644 0 0 338.990644 338.990644 0L926.450778 98.595552zM482.573295 970.789101 51.511699 970.789101 51.511699 539.727505l431.061596 0L482.573295 970.789101zM436.537819 585.761957 97.547175 585.761957l0 338.990644 338.990644 0L436.537819 585.761957z" p-id="1058" fill="#ffffff"></path></svg>